<svg width="683" height="683" viewBox="0 0 683 683" fill="none" xmlns="http://www.w3.org/2000/svg">
<path d="M563.576 212.758L503.098 231.472L453.396 192.26L452.505 255.561L399.854 290.712L459.781 311.121L476.942 372.058L514.871 321.371L578.128 323.88L541.642 272.144L563.576 212.758Z" fill="#5B8F5A"/>
<path d="M279.997 370.326C230.212 265.765 274.617 140.644 379.177 90.8594C380.701 90.1338 382.23 89.4324 383.762 88.7471C333.648 80.2505 280.516 86.5419 231.137 110.053C103.484 170.833 49.2723 323.589 110.053 451.243C170.833 578.896 323.589 633.108 451.243 572.327C500.621 548.816 538.999 511.536 563.994 467.278C562.497 468.036 560.988 468.781 559.464 469.506C454.903 519.291 329.782 474.887 279.997 370.326V370.326Z" fill="#5B8F5A"/>
</svg>
